#!OML:ASF I:\Actors\actors\Patient Classification 1\Patient 1\Session 1\Subject1.ASF
:FULLY-SPECIFIED
:DEGREES
1033
root 0.856195 17.443 9.76369 10.197 -1.80835 -8.88397
lowerback -1.47931 4.66086 7.87094
upperback -8.90432 6.55709 0.22043
thorax -7.75067 2.70988 -4.42837
lowerneck -8.11195 5.67232 8.46088
upperneck 30.6455 7.76723 -3.46841
head 11.8433 4.13478 -1.75181
rclavicle -2.93207e-014 -7.15625e-015
rhumerus -29.2796 52.3924 -114.154
rradius 94.3666
rwrist 20.394
rhand -6.526 -33.391
rfingers 7.12502
rthumb 19.3266 -782.451
lclavicle -2.93207e-014 -7.15625e-015
lhumerus -48.68 -4.9699 93.4864
lradius 110.189
lwrist 79.0262
lhand -19.8694 11.3482
lfingers 7.12502
lthumb 6.46587 41.2295
rfemur -1.79052 26.0996 25.2329
rtibia 1.68967
rfoot -14.2594 -29.0578
rtoes 2.668
lfemur 8.49481 -45.947 -14.3728
ltibia -4.94978
lfoot -25.4923 53.749
ltoes 10.5063
1034
root 0.855319 17.4418 9.76654 10.2004 -1.87783 -8.87498
lowerback -1.5781 4.61626 7.80285
upperback -8.95511 6.49325 0.30484
thorax -7.77361 2.68421 -4.29484
lowerneck -7.94059 5.71746 8.38891
upperneck 29.5036 7.73635 -3.26355
head 11.3437 4.12999 -1.67575
rclavicle -8.94531e-015 -4.6118e-014
rhumerus -29.6 52.4673 -114.478
rradius 94.3454
rwrist 20.3792
rhand -6.24628 -33.2621
rfingers 7.12502
rthumb 19.5956 -782.295
lclavicle -8.94531e-015 -4.6118e-014
lhumerus -49.0754 -5.13055 93.7936
lradius 109.961
lwrist 78.8731
lhand -19.5918 8.9548
lfingers 7.12502
lthumb 6.73391 38.8277
rfemur -1.81537 26.1044 25.2167
rtibia 1.73607
rfoot -14.2599 -29.0026
rtoes 2.56807
lfemur 8.60707 -46.0525 -14.475
ltibia -4.97471
lfoot -25.8637 53.8515
ltoes 10.9499
1035
root 0.854744 17.44 9.77067 10.2104 -1.90157 -8.82996
lowerback -1.69839 4.57857 7.76326
upperback -9.02528 6.43624 0.350006
thorax -7.79744 2.658 -4.21727
lowerneck -7.53981 5.74504 8.29826
upperneck 28.148 7.70981 -3.08872
head 10.7315 4.12344 -1.61807
rclavicle -7.15625e-015 1.27222e-014
rhumerus -29.9402 52.4851 -114.813
rradius 94.3282
rwrist 20.4511
rhand -6.15304 -33.2244
rfingers 7.12502
rthumb 19.6852 -782.248
lclavicle -7.15625e-015 1.27222e-014
lhumerus -49.4401 -5.13691 93.8776
lradius 109.973
lwrist 78.9647
lhand -19.6256 9.08942
lfingers 7.12502
lthumb 6.70127 38.9634
rfemur -1.83477 26.0844 25.1611
rtibia 1.78063
rfoot -14.3295 -28.9344
rtoes 2.56048
lfemur 8.67534 -46.1544 -14.5897
ltibia -4.9866
lfoot -26.0295 53.9448
ltoes 11.1103
1036
root 0.855528 17.4377 9.77563 10.2147 -1.86735 -8.74724
lowerback -1.84209 4.52782 7.7415
upperback -9.08058 6.35934 0.399861
thorax -7.79254 2.62268 -4.14117
lowerneck -7.17021 5.79938 8.20459
upperneck 27.007 7.73844 -2.92392
head 10.2256 4.14148 -1.55772
rclavicle -4.42296e-014 -2.8625e-014
rhumerus -30.2322 52.5708 -115.05
rradius 94.3029
rwrist 20.4626
rhand -6.18692 -33.2305
rfingers 7.12502
rthumb 19.6527 -782.257
lclavicle -4.42296e-014 -2.8625e-014
lhumerus -49.7782 -5.11901 93.9868
lradius 109.995
lwrist 79.1464
lhand -19.8357 9.35072
lfingers 7.12502
lthumb 6.49842 39.231
rfemur -1.80608 26.0684 25.0728
rtibia 1.76048
rfoot -14.4175 -28.9341
rtoes 2.67752
lfemur 8.67105 -46.1683 -14.6952
ltibia -4.96187
lfoot -25.9629 53.932
ltoes 10.9922
1037
root 0.856922 17.4357 9.78069 10.2028 -1.8797 -8.7301
lowerback -1.98281 4.48703 7.76968
upperback -9.11233 6.29801 0.484079
thorax -7.76099 2.59462 -4.05565
lowerneck -6.90385 5.84499 8.0008
upperneck 25.9655 7.75129 -2.68019
head 9.77669 4.14853 -1.45273
rclavicle -7.7526e-015 -3.97569e-016
rhumerus -30.4746 52.7208 -115.23
rradius 94.2823
rwrist 20.3779
rhand -6.17685 -33.2232
rfingers 7.12502
rthumb 19.6623 -782.249
lclavicle -7.7526e-015 -3.97569e-016
lhumerus -50.0664 -5.08065 94.0873
lradius 109.978
lwrist 79.216
lhand -19.8837 9.51223
lfingers 7.12502
lthumb 6.45209 39.394
rfemur -1.75662 26.0576 25.0603
rtibia 1.72926
rfoot -14.4365 -28.9331
rtoes 2.76944
lfemur 8.80055 -46.3006 -14.8331
ltibia -4.97199
lfoot -26.161 54.0278
ltoes 11.218
